<svg xmlns="http://www.w3.org/2000/svg" version="1.1" xmlns:xlink="http://www.w3.org/1999/xlink" xmlns:svgjs="http://svgjs.dev/svgjs" width="2000" height="727" viewBox="0 0 2000 727"><g transform="matrix(1,0,0,1,-1.2121212121213603,-0.4272203992404684)"><svg viewBox="0 0 396 144" data-background-color="#ffffff" preserveAspectRatio="xMidYMid meet" height="727" width="2000" xmlns="http://www.w3.org/2000/svg" xmlns:xlink="http://www.w3.org/1999/xlink"><g id="tight-bounds" transform="matrix(1,0,0,1,0.24000000000003752,0.08462137206413445)"><svg viewBox="0 0 395.5199999999999 143.83075725587176" height="143.83075725587176" width="395.5199999999999"><g><svg viewBox="0 0 675.5222653238827 245.65351679999995" height="143.83075725587176" width="395.5199999999999"><g transform="matrix(1,0,0,1,278.02466532388286,18.739002566607056)"><svg viewBox="0 0 397.4975999999999 208.17551166678584" height="208.17551166678584" width="397.4975999999999"><g id="textblocktransform"><svg viewBox="0 0 397.4975999999999 208.17551166678584" height="208.17551166678584" width="397.4975999999999" id="textblock"><g><rect width="397.4975999999999" height="12.365778736123268" x="0" y="151.68874256764252" fill="#ffffff" opacity="1" stroke-width="0" stroke="transparent" fill-opacity="1" class="rect-o-0" data-fill-palette-color="primary" rx="1%" id="o-0" data-palette-color="#e83d95"></rect></g><g transform="matrix(1,0,0,1,0.9887999999999693,0)"><svg viewBox="0 0 395.52 137.12172573189522" height="137.12172573189522" width="395.52"><g transform="matrix(1,0,0,1,0,0)"><svg width="395.52" viewBox="2.2699999809265137 -42.189998626708984 126.75000762939453 43.94999694824219" height="137.12172573189522" data-palette-color="#e83d95"><path d="M15.55-18.36L15.55-20.12 26.15-20.12Q28.56-20.12 30.24-21.68 31.91-23.24 31.91-26.12L31.91-26.12Q31.91-28.25 30.15-29.94 28.39-31.64 26.15-31.64L26.15-31.64 11.06-31.64 11.06 0 9.3 0 9.3-33.4 26.15-33.4Q29.13-33.4 31.4-31.19 33.67-28.98 33.67-26.12L33.67-26.12Q33.67-22.61 31.47-20.48 29.27-18.36 26.15-18.36L26.15-18.36 15.55-18.36ZM15.55-14.84L15.55-16.6 26.15-16.6Q29.96-16.6 32.69-19.27 35.42-21.95 35.42-26.12L35.42-26.12Q35.42-29.71 32.63-32.43 29.83-35.16 26.15-35.16L26.15-35.16 7.54-35.16 7.54 0 5.79 0 5.79-36.91 26.15-36.91Q29.05-36.91 31.6-35.42 34.16-33.94 35.67-31.43 37.18-28.93 37.18-26.12L37.18-26.12Q37.18-21.31 33.92-18.08 30.66-14.84 26.15-14.84L26.15-14.84 15.55-14.84ZM15.55-11.33L15.55-13.09 26.15-13.09Q29.57-13.09 32.5-14.77 35.42-16.46 37.18-19.47 38.94-22.49 38.94-26.12L38.94-26.12Q38.94-29.42 37.19-32.31 35.45-35.21 32.5-36.94 29.54-38.67 26.15-38.67L26.15-38.67 4.03-38.67 4.03 0 2.27 0 2.27-40.43 26.15-40.43Q29.98-40.43 33.35-38.46 36.72-36.5 38.71-33.19 40.7-29.88 40.7-26.12L40.7-26.12Q40.7-21.78 38.83-18.48 36.96-15.19 33.76-13.33L33.76-13.33 38.31 0 36.45 0 32.1-12.5Q31.13-12.11 30.62-11.96L30.62-11.96 34.69 0 32.84 0 28.86-11.55Q28.64-11.5 27.29-11.38L27.29-11.38 31.08 0 29.22 0 25.49-11.33 23.9-11.33 27.47 0 25.61 0 22.02-11.33 15.55-11.33ZM14.58-28.13L14.58 0 12.82 0 12.82-29.88 26.15-29.88Q27.78-29.88 28.97-28.77 30.15-27.66 30.15-26.12L30.15-26.12Q30.15-21.88 26.15-21.88L26.15-21.88 15.55-21.88 15.55-23.63 26.15-23.63Q27.2-23.63 27.8-24.18 28.39-24.73 28.39-26.12L28.39-26.12Q28.39-26.98 27.75-27.55 27.1-28.13 26.15-28.13L26.15-28.13 14.58-28.13ZM76.76 0L76.76-21.12 78.51-21.12 78.51 0 76.76 0ZM83.79 0L83.79-21.12 85.54-21.12 85.54 0 83.79 0ZM80.27 0L80.27-21.12 82.03-21.12 82.03 0 80.27 0ZM73.24-21.12L75-21.12 75 0Q70.36 1.76 65.38 1.76L65.38 1.76Q61.06 1.76 57.1 0.17 53.15-1.42 50.14-4.24 47.14-7.06 45.35-11.22 43.55-15.38 43.55-20.21L43.55-20.21Q43.55-24.68 45.3-28.75 47.04-32.81 49.99-35.75 52.93-38.7 56.99-40.44 61.06-42.19 65.52-42.19L65.52-42.19Q71.09-42.19 75.88-39.6 80.66-37.01 83.69-32.57L83.69-32.57 82.22-31.62Q79.44-35.69 75.03-38.06 70.63-40.43 65.52-40.43L65.52-40.43Q61.42-40.43 57.68-38.83 53.93-37.23 51.22-34.52 48.51-31.81 46.91-28.06 45.31-24.32 45.31-20.21L45.31-20.21Q45.31-15.8 46.96-11.96 48.61-8.13 51.35-5.54 54.1-2.95 57.74-1.48 61.37 0 65.31 0L65.31 0Q69.43 0 73.24-1.29L73.24-1.29 73.24-2.98Q69.6-1.76 65.6-1.76L65.6-1.76Q62.69-1.76 59.95-2.58 57.2-3.39 54.87-4.99 52.54-6.59 50.79-8.8 49.05-11.01 48.06-13.95 47.07-16.89 47.07-20.21L47.07-20.21Q47.07-25.22 49.55-29.47 52.02-33.72 56.27-36.19 60.52-38.67 65.52-38.67L65.52-38.67Q70.21-38.67 74.24-36.49 78.27-34.3 80.81-30.57L80.81-30.57 79.34-29.61Q77.05-32.98 73.4-34.95 69.75-36.91 65.52-36.91L65.52-36.91Q62.13-36.91 59.03-35.6 55.93-34.28 53.7-32.04 51.46-29.81 50.14-26.71 48.83-23.61 48.83-20.21L48.83-20.21Q48.83-17.16 49.72-14.49 50.61-11.82 52.18-9.83 53.76-7.84 55.86-6.41 57.96-4.98 60.43-4.25 62.91-3.52 65.52-3.52L65.52-3.52Q69.58-3.52 73.24-4.88L73.24-4.88 73.24-6.64Q69.63-5.25 65.7-5.25L65.7-5.25Q62.72-5.25 60.01-6.26 57.3-7.28 55.19-9.13 53.07-10.99 51.83-13.87 50.58-16.75 50.58-20.21L50.58-20.21Q50.58-24.27 52.59-27.71 54.59-31.15 58.03-33.15 61.47-35.16 65.52-35.16L65.52-35.16Q69.31-35.16 72.57-33.4 75.83-31.64 77.88-28.61L77.88-28.61 76.41-27.66Q74.61-30.3 71.74-31.85 68.87-33.4 65.52-33.4L65.52-33.4Q61.94-33.4 58.91-31.63 55.88-29.86 54.11-26.83 52.34-23.8 52.34-20.21L52.34-20.21Q52.34-17.72 53.05-15.58 53.76-13.43 55-11.87 56.25-10.3 57.92-9.2 59.59-8.11 61.52-7.56 63.45-7.01 65.52-7.01L65.52-7.01Q69.65-7.01 73.24-8.64L73.24-8.64 73.24-10.33Q69.77-8.79 65.74-8.79L65.74-8.79Q63.43-8.79 61.37-9.5 59.32-10.21 57.68-11.57 56.03-12.94 55.06-15.17 54.1-17.41 54.1-20.21L54.1-20.21Q54.1-22.53 55-24.65 55.91-26.76 57.44-28.3 58.98-29.83 61.09-30.74 63.21-31.64 65.52-31.64L65.52-31.64Q68.43-31.64 70.92-30.29 73.41-28.93 74.97-26.61L74.97-26.61 73.53-25.66Q72.21-27.61 70.1-28.75 67.99-29.88 65.52-29.88L65.52-29.88Q61.52-29.88 58.69-27.05 55.86-24.22 55.86-20.21L55.86-20.21Q55.86-17.75 56.66-15.86 57.47-13.96 58.87-12.83 60.28-11.69 62-11.12 63.72-10.55 65.7-10.55L65.7-10.55Q69.75-10.55 73.24-12.23L73.24-12.23 73.24-21.12ZM116.72-14.09L116.72-14.09Q116.72-15.04 116.14-15.36 115.57-15.67 114.47-15.67L114.47-15.67 103.14-15.67 103.14-17.43 114.47-17.43Q118.48-17.43 118.48-14.09L118.48-14.09Q118.48-12.21 117.38-11.38 116.28-10.55 114.47-10.55L114.47-10.55 103.14-10.55 103.14-12.3 114.47-12.3Q116.72-12.3 116.72-14.09ZM102.17-28.13L102.17 0 100.41 0 100.41-29.88 114.47-29.88Q116.13-29.88 117.3-28.87 118.48-27.86 118.48-26.34L118.48-26.34Q118.48-24.34 117.38-23.45 116.28-22.56 114.47-22.56L114.47-22.56 103.14-22.56 103.14-24.32 114.47-24.32Q116.72-24.32 116.72-26.34L116.72-26.34Q116.72-27.17 116.08-27.65 115.45-28.13 114.47-28.13L114.47-28.13 102.17-28.13ZM103.14-19.04L103.14-20.8 114.47-20.8Q116.89-20.8 118.56-22.25 120.23-23.71 120.23-26.34L120.23-26.34Q120.23-28.47 118.49-30.05 116.74-31.64 114.47-31.64L114.47-31.64 98.65-31.64 98.65 0 96.89 0 96.89-33.4 114.47-33.4Q117.48-33.4 119.73-31.29 121.99-29.17 121.99-26.34L121.99-26.34Q121.99-24.12 120.95-22.46 119.92-20.8 118.16-19.9L118.16-19.9Q121.99-18.53 121.99-14.33L121.99-14.33Q121.99-11.01 119.79-9.02 117.6-7.03 114.47-7.03L114.47-7.03 103.14-7.03 103.14-8.79 114.47-8.79Q116.89-8.79 118.56-10.24 120.23-11.69 120.23-14.33L120.23-14.33Q120.23-16.11 118.96-17.48 117.7-18.85 115.23-19.07L115.23-19.07Q114.99-19.04 114.47-19.04L114.47-19.04 103.14-19.04ZM125.51-26.34L125.51-26.34Q125.51-22.92 123.09-20.17L123.09-20.17Q125.51-17.48 125.51-14.33L125.51-14.33Q125.51-11.28 123.98-8.78 122.46-6.27 119.93-4.9 117.4-3.52 114.47-3.52L114.47-3.52 103.14-3.52 103.14-5.27 114.47-5.27Q118.28-5.27 121.02-7.82 123.75-10.38 123.75-14.33L123.75-14.33Q123.75-15.75 123.03-17.47 122.31-19.19 121.04-20.09L121.04-20.09Q123.75-22.63 123.75-26.34L123.75-26.34Q123.75-29.91 120.97-32.53 118.18-35.16 114.47-35.16L114.47-35.16 95.14-35.16 95.14 0 93.38 0 93.38-36.91 114.47-36.91Q117.38-36.91 119.93-35.49 122.48-34.06 123.99-31.6 125.51-29.15 125.51-26.34ZM125.09-20.07L125.09-20.07Q127.27-22.97 127.27-26.34L127.27-26.34Q127.27-29.64 125.52-32.48 123.77-35.33 120.82-37 117.87-38.67 114.47-38.67L114.47-38.67 91.62-38.67 91.62 0 89.86 0 89.86-40.43 114.47-40.43Q118.33-40.43 121.69-38.53 125.04-36.62 127.03-33.36 129.02-30.1 129.02-26.34L129.02-26.34Q129.02-22.75 127-20.04L127-20.04Q129.02-17.24 129.02-14.33L129.02-14.33Q129.02-11.06 127.85-8.34 126.68-5.62 124.69-3.81 122.7-2 120.06-1 117.43 0 114.47 0L114.47 0 103.14 0 103.14-1.76 114.47-1.76Q117.04-1.76 119.38-2.72 121.72-3.69 123.46-5.35 125.19-7.01 126.23-9.35 127.27-11.69 127.27-14.33L127.27-14.33Q127.27-15.5 126.72-17.15 126.17-18.8 125.09-20.07Z" opacity="1" transform="matrix(1,0,0,1,0,0)" fill="#ffffff" class="wordmark-text-0" data-fill-palette-color="primary" id="text-0"></path></svg></g></svg></g><g transform="matrix(1,0,0,1,0,178.6215381395131)"><svg viewBox="0 0 232.209792 29.553973527272724" height="29.553973527272724" width="232.209792"><g transform="matrix(1,0,0,1,0,0)"><svg width="232.209792" viewBox="0 -50 343.739990234375 43.75" height="29.553973527272724" data-palette-color="#a62a6c"><path d="M37.5-6.25L12.5-6.25 12.5-12.5 6.25-12.5 6.25-18.75 0-18.75 0-37.5 6.25-37.5 6.25-43.75 12.5-43.75 12.5-50 37.5-50 37.5-43.75 43.75-43.75 43.75-37.5 31.25-37.5 31.25-43.75 18.75-43.75 18.75-37.5 12.5-37.5 12.5-18.75 18.75-18.75 18.75-12.5 31.25-12.5 31.25-18.75 43.75-18.75 43.75-12.5 37.5-12.5 37.5-6.25ZM81.25-43.75L68.75-43.75 68.75-50 81.25-50 81.25-43.75ZM93.75-6.25L56.25-6.25 56.25-12.5 68.75-12.5 68.75-31.25 62.5-31.25 62.5-37.5 81.25-37.5 81.25-12.5 93.75-12.5 93.75-6.25ZM112.5-6.25L100-6.25 100-37.5 137.5-37.5 137.5-31.25 143.75-31.25 143.75-6.25 131.25-6.25 131.25-31.25 112.5-31.25 112.5-6.25ZM187.49-6.25L156.24-6.25 156.24-12.5 149.99-12.5 149.99-31.25 156.24-31.25 156.24-37.5 187.49-37.5 187.49-31.25 193.74-31.25 193.74-18.75 162.49-18.75 162.49-12.5 187.49-12.5 187.49-6.25ZM162.49-31.25L162.49-25 181.24-25 181.24-31.25 162.49-31.25ZM206.24-6.25L199.99-6.25 199.99-37.5 237.49-37.5 237.49-31.25 243.74-31.25 243.74-6.25 231.24-6.25 231.24-31.25 224.99-31.25 224.99-6.25 212.49-6.25 212.49-31.25 206.24-31.25 206.24-6.25ZM293.74-6.25L256.24-6.25 256.24-12.5 249.99-12.5 249.99-18.75 256.24-18.75 256.24-25 281.24-25 281.24-31.25 256.24-31.25 256.24-37.5 287.49-37.5 287.49-31.25 293.74-31.25 293.74-6.25ZM262.49-18.75L262.49-12.5 281.24-12.5 281.24-18.75 262.49-18.75ZM337.49-6.25L299.99-6.25 299.99-12.5 331.24-12.5 331.24-18.75 306.24-18.75 306.24-25 299.99-25 299.99-31.25 306.24-31.25 306.24-37.5 337.49-37.5 337.49-31.25 312.49-31.25 312.49-25 337.49-25 337.49-18.75 343.74-18.75 343.74-12.5 337.49-12.5 337.49-6.25Z" opacity="1" transform="matrix(1,0,0,1,0,0)" fill="#ffffff" class="slogan-text-1" data-fill-palette-color="secondary" id="text-1"></path></svg></g></svg></g></svg></g></svg></g><g><svg viewBox="0 0 245.65351679999995 245.65351679999995" height="245.65351679999995" width="245.65351679999995"><g><svg xmlns="http://www.w3.org/2000/svg" xmlns:xlink="http://www.w3.org/1999/xlink" version="1.1" x="0" y="0" viewBox="0 0 96 96" enable-background="new 0 0 96 96" xml:space="preserve" height="245.65351679999995" width="245.65351679999995" class="icon-icon-0" data-fill-palette-color="accent" id="icon-0"><g fill="#a62a6c" data-fill-palette-color="accent"><g fill="#a62a6c" data-fill-palette-color="accent"><path fill="#ffffff" d="M22.423 59c-2.938 0-5.701-1.144-7.778-3.222-2.078-2.077-3.222-4.84-3.222-7.778s1.144-5.701 3.222-7.778C16.722 38.144 19.485 37 22.423 37s5.701 1.144 7.778 3.222c2.078 2.077 3.222 4.84 3.222 7.778s-1.144 5.701-3.222 7.778C28.124 57.856 25.361 59 22.423 59zM22.423 41c-1.87 0-3.627 0.728-4.949 2.05-1.323 1.322-2.051 3.08-2.051 4.95s0.728 3.627 2.05 4.949c1.322 1.323 3.08 2.051 4.95 2.051s3.627-0.728 4.949-2.05c1.323-1.322 2.051-3.08 2.051-4.95s-0.728-3.627-2.05-4.949C26.05 41.728 24.292 41 22.423 41z" data-fill-palette-color="accent"></path></g><g fill="#a62a6c" data-fill-palette-color="accent"><path fill="#ffffff" d="M48 84.577c-2.938 0-5.701-1.144-7.778-3.222C38.144 79.278 37 76.515 37 73.577s1.144-5.701 3.222-7.778c2.077-2.078 4.84-3.222 7.778-3.222s5.701 1.144 7.778 3.222C57.856 67.876 59 70.639 59 73.577s-1.144 5.701-3.222 7.778C53.701 83.433 50.938 84.577 48 84.577zM48 66.577c-1.87 0-3.627 0.728-4.949 2.05C41.728 69.95 41 71.708 41 73.577s0.728 3.627 2.05 4.949c1.322 1.323 3.08 2.051 4.95 2.051s3.627-0.728 4.949-2.05c1.323-1.322 2.051-3.08 2.051-4.95s-0.728-3.627-2.05-4.949C51.627 67.305 49.87 66.577 48 66.577z" data-fill-palette-color="accent"></path></g><g fill="#a62a6c" data-fill-palette-color="accent"><path fill="#ffffff" d="M48 33.423c-2.938 0-5.701-1.144-7.778-3.222C38.144 28.124 37 25.361 37 22.423s1.144-5.701 3.222-7.778c2.077-2.078 4.84-3.222 7.778-3.222s5.701 1.144 7.778 3.222C57.856 16.722 59 19.485 59 22.423s-1.144 5.701-3.222 7.778C53.701 32.279 50.938 33.423 48 33.423zM48 15.423c-1.87 0-3.627 0.728-4.949 2.05C41.728 18.795 41 20.553 41 22.423s0.728 3.627 2.05 4.949c1.322 1.323 3.08 2.051 4.95 2.051s3.627-0.728 4.949-2.05C54.272 26.05 55 24.292 55 22.423s-0.728-3.627-2.05-4.949C51.627 16.151 49.87 15.423 48 15.423z" data-fill-palette-color="accent"></path></g><g fill="#a62a6c" data-fill-palette-color="accent"><path fill="#ffffff" d="M73.577 59c-2.938 0-5.701-1.144-7.778-3.222-2.078-2.077-3.222-4.84-3.222-7.778s1.144-5.701 3.222-7.778C67.876 38.144 70.639 37 73.577 37s5.701 1.144 7.778 3.222c2.078 2.077 3.222 4.84 3.222 7.778s-1.144 5.701-3.222 7.778C79.278 57.856 76.515 59 73.577 59zM73.577 41c-1.87 0-3.627 0.728-4.949 2.05-1.323 1.322-2.051 3.08-2.051 4.95s0.728 3.627 2.05 4.949C69.95 54.272 71.708 55 73.577 55s3.627-0.728 4.949-2.05c1.323-1.322 2.051-3.08 2.051-4.95s-0.728-3.627-2.05-4.949C77.205 41.728 75.447 41 73.577 41z" data-fill-palette-color="accent"></path></g><g fill="#a62a6c" data-fill-palette-color="accent"><path fill="#ffffff" d="M48 96c-12.821 0-24.875-4.993-33.941-14.059C4.993 72.875 0 60.821 0 48s4.993-24.875 14.059-33.941C23.125 4.993 35.179 0 48 0s24.875 4.993 33.941 14.059C91.007 23.125 96 35.179 96 48s-4.993 24.875-14.059 33.941C72.875 91.007 60.821 96 48 96zM48 4C36.247 4 25.198 8.577 16.887 16.887S4 36.247 4 48s4.577 22.802 12.887 31.113S36.247 92 48 92s22.802-4.577 31.113-12.887S92 59.753 92 48s-4.577-22.802-12.887-31.113S59.753 4 48 4z" data-fill-palette-color="accent"></path></g><g fill="#a62a6c" data-fill-palette-color="accent"><path fill="#ffffff" d="M48 54c-1.603 0-3.109-0.624-4.243-1.757-2.339-2.34-2.339-6.146 0-8.486C44.891 42.624 46.397 42 48 42s3.109 0.624 4.243 1.757c2.339 2.34 2.339 6.146 0 8.486C51.109 53.376 49.603 54 48 54zM48 46c-0.534 0-1.037 0.208-1.415 0.586-0.779 0.779-0.779 2.049 0 2.829 0.755 0.755 2.073 0.755 2.829 0 0.779-0.779 0.779-2.049 0-2.829C49.037 46.208 48.534 46 48 46z" data-fill-palette-color="accent"></path></g></g><g fill="#a62a6c" data-fill-palette-color="accent"><path fill="#ffffff" d="M94 96H49c-1.104 0-2-0.896-2-2s0.896-2 2-2h45c1.104 0 2 0.896 2 2S95.104 96 94 96z" data-fill-palette-color="accent"></path></g></svg></g></svg></g></svg></g><defs></defs></svg><rect width="395.5199999999999" height="143.83075725587176" fill="none" stroke="none" visibility="hidden"></rect></g></svg></g></svg>