<svg xmlns="http://www.w3.org/2000/svg" version="1.1" xmlns:xlink="http://www.w3.org/1999/xlink" xmlns:svgjs="http://svgjs.dev/svgjs" width="128" height="128" viewBox="0 0 128 128"><g transform="matrix(0.8046875,0,0,0.8046875,12.760752631578946,12.760752631578946)"><svg viewBox="0 0 95 95" data-background-color="#ffffff" preserveAspectRatio="xMidYMid meet" height="128" width="128" xmlns="http://www.w3.org/2000/svg" xmlns:xlink="http://www.w3.org/1999/xlink"><g id="tight-bounds" transform="matrix(1,0,0,1,-0.24049999999999727,-0.24049999999999727)"><svg viewBox="0 0 95.481 95.481" height="95.481" width="95.481"><g><svg viewBox="0 0 95.481 95.481" height="95.481" width="95.481"><g><svg viewBox="0 0 95.481 95.481" height="95.481" width="95.481"><g id="textblocktransform"><svg viewBox="0 0 95.481 95.481" height="95.481" width="95.481" id="textblock"><g><svg viewBox="0 0 95.481 95.481" height="95.481" width="95.481"><g><svg viewBox="0 0 95.481 95.481" height="95.481" width="95.481"><g><svg xmlns="http://www.w3.org/2000/svg" xmlns:xlink="http://www.w3.org/1999/xlink" version="1.1" x="0" y="0" viewBox="0 0 96 96" enable-background="new 0 0 96 96" xml:space="preserve" height="95.481" width="95.481" class="icon-icon-0" data-fill-palette-color="accent" id="icon-0"><g fill="#a62a6c" data-fill-palette-color="accent"><g fill="#a62a6c" data-fill-palette-color="accent"><path fill="#000000" d="M22.423 59c-2.938 0-5.701-1.144-7.778-3.222-2.078-2.077-3.222-4.84-3.222-7.778s1.144-5.701 3.222-7.778C16.722 38.144 19.485 37 22.423 37s5.701 1.144 7.778 3.222c2.078 2.077 3.222 4.84 3.222 7.778s-1.144 5.701-3.222 7.778C28.124 57.856 25.361 59 22.423 59zM22.423 41c-1.87 0-3.627 0.728-4.949 2.05-1.323 1.322-2.051 3.08-2.051 4.95s0.728 3.627 2.05 4.949c1.322 1.323 3.08 2.051 4.95 2.051s3.627-0.728 4.949-2.05c1.323-1.322 2.051-3.08 2.051-4.95s-0.728-3.627-2.05-4.949C26.05 41.728 24.292 41 22.423 41z" data-fill-palette-color="accent"></path></g><g fill="#a62a6c" data-fill-palette-color="accent"><path fill="#000000" d="M48 84.577c-2.938 0-5.701-1.144-7.778-3.222C38.144 79.278 37 76.515 37 73.577s1.144-5.701 3.222-7.778c2.077-2.078 4.84-3.222 7.778-3.222s5.701 1.144 7.778 3.222C57.856 67.876 59 70.639 59 73.577s-1.144 5.701-3.222 7.778C53.701 83.433 50.938 84.577 48 84.577zM48 66.577c-1.87 0-3.627 0.728-4.949 2.05C41.728 69.95 41 71.708 41 73.577s0.728 3.627 2.05 4.949c1.322 1.323 3.08 2.051 4.95 2.051s3.627-0.728 4.949-2.05c1.323-1.322 2.051-3.08 2.051-4.95s-0.728-3.627-2.05-4.949C51.627 67.305 49.87 66.577 48 66.577z" data-fill-palette-color="accent"></path></g><g fill="#a62a6c" data-fill-palette-color="accent"><path fill="#000000" d="M48 33.423c-2.938 0-5.701-1.144-7.778-3.222C38.144 28.124 37 25.361 37 22.423s1.144-5.701 3.222-7.778c2.077-2.078 4.84-3.222 7.778-3.222s5.701 1.144 7.778 3.222C57.856 16.722 59 19.485 59 22.423s-1.144 5.701-3.222 7.778C53.701 32.279 50.938 33.423 48 33.423zM48 15.423c-1.87 0-3.627 0.728-4.949 2.05C41.728 18.795 41 20.553 41 22.423s0.728 3.627 2.05 4.949c1.322 1.323 3.08 2.051 4.95 2.051s3.627-0.728 4.949-2.05C54.272 26.05 55 24.292 55 22.423s-0.728-3.627-2.05-4.949C51.627 16.151 49.87 15.423 48 15.423z" data-fill-palette-color="accent"></path></g><g fill="#a62a6c" data-fill-palette-color="accent"><path fill="#000000" d="M73.577 59c-2.938 0-5.701-1.144-7.778-3.222-2.078-2.077-3.222-4.84-3.222-7.778s1.144-5.701 3.222-7.778C67.876 38.144 70.639 37 73.577 37s5.701 1.144 7.778 3.222c2.078 2.077 3.222 4.84 3.222 7.778s-1.144 5.701-3.222 7.778C79.278 57.856 76.515 59 73.577 59zM73.577 41c-1.87 0-3.627 0.728-4.949 2.05-1.323 1.322-2.051 3.08-2.051 4.95s0.728 3.627 2.05 4.949C69.95 54.272 71.708 55 73.577 55s3.627-0.728 4.949-2.05c1.323-1.322 2.051-3.08 2.051-4.95s-0.728-3.627-2.05-4.949C77.205 41.728 75.447 41 73.577 41z" data-fill-palette-color="accent"></path></g><g fill="#a62a6c" data-fill-palette-color="accent"><path fill="#000000" d="M48 96c-12.821 0-24.875-4.993-33.941-14.059C4.993 72.875 0 60.821 0 48s4.993-24.875 14.059-33.941C23.125 4.993 35.179 0 48 0s24.875 4.993 33.941 14.059C91.007 23.125 96 35.179 96 48s-4.993 24.875-14.059 33.941C72.875 91.007 60.821 96 48 96zM48 4C36.247 4 25.198 8.577 16.887 16.887S4 36.247 4 48s4.577 22.802 12.887 31.113S36.247 92 48 92s22.802-4.577 31.113-12.887S92 59.753 92 48s-4.577-22.802-12.887-31.113S59.753 4 48 4z" data-fill-palette-color="accent"></path></g><g fill="#a62a6c" data-fill-palette-color="accent"><path fill="#000000" d="M48 54c-1.603 0-3.109-0.624-4.243-1.757-2.339-2.34-2.339-6.146 0-8.486C44.891 42.624 46.397 42 48 42s3.109 0.624 4.243 1.757c2.339 2.34 2.339 6.146 0 8.486C51.109 53.376 49.603 54 48 54zM48 46c-0.534 0-1.037 0.208-1.415 0.586-0.779 0.779-0.779 2.049 0 2.829 0.755 0.755 2.073 0.755 2.829 0 0.779-0.779 0.779-2.049 0-2.829C49.037 46.208 48.534 46 48 46z" data-fill-palette-color="accent"></path></g></g><g fill="#a62a6c" data-fill-palette-color="accent"><path fill="#000000" d="M94 96H49c-1.104 0-2-0.896-2-2s0.896-2 2-2h45c1.104 0 2 0.896 2 2S95.104 96 94 96z" data-fill-palette-color="accent"></path></g></svg></g></svg></g></svg></g></svg></g></svg></g></svg></g><defs></defs></svg><rect width="95.481" height="95.481" fill="none" stroke="none" visibility="hidden"></rect></g></svg></g></svg>