<svg xmlns="http://www.w3.org/2000/svg" version="1.1" xmlns:xlink="http://www.w3.org/1999/xlink" xmlns:svgjs="http://svgjs.dev/svgjs" width="128" height="128" viewBox="0 0 128 128"><g transform="matrix(0.8046875,0,0,0.8046875,12.333870967741937,12.333870967741937)"><svg viewBox="0 0 155 155" data-background-color="#ffffff" preserveAspectRatio="xMidYMid meet" height="128" width="128" xmlns="http://www.w3.org/2000/svg" xmlns:xlink="http://www.w3.org/1999/xlink"><g id="tight-bounds" transform="matrix(1,0,0,1,0.25,0.25)"><svg viewBox="0 0 154.5 154.5" height="154.5" width="154.5"><g><svg></svg></g><g><svg viewBox="0 0 154.5 154.5" height="154.5" width="154.5"><g transform="matrix(1,0,0,1,56.59667904795033,56.5974597)"><svg viewBox="0 0 41.30664190409933 41.3050806" height="41.3050806" width="41.30664190409933"><g><svg viewBox="0 0 41.30664190409933 41.3050806" height="41.3050806" width="41.30664190409933"><g><svg viewBox="0 0 41.30664190409933 41.3050806" height="41.3050806" width="41.30664190409933"><g id="textblocktransform"><svg viewBox="0 0 41.30664190409933 41.3050806" height="41.3050806" width="41.30664190409933" id="textblock"><g><svg viewBox="0 0 41.30664190409933 41.3050806" height="41.3050806" width="41.30664190409933"><g><svg viewBox="0 0 41.30664190409933 41.3050806" height="41.3050806" width="41.30664190409933"><g><svg xmlns:x="http://ns.adobe.com/Extensibility/1.0/" xmlns:i="http://ns.adobe.com/AdobeIllustrator/10.0/" xmlns:graph="http://ns.adobe.com/Graphs/1.0/" xmlns="http://www.w3.org/2000/svg" xmlns:xlink="http://www.w3.org/1999/xlink" version="1.1" x="0" y="0" viewBox="5.544 5.543999999999998 52.913000000000004 52.911" enable-background="new 0 0 64 64" xml:space="preserve" height="41.3050806" width="41.30664190409933" class="icon-icon-0" data-fill-palette-color="accent" id="icon-0"><g fill="#e90064" data-fill-palette-color="accent"><path d="M58.163 22.808l-4.243-4.243c-0.375-0.375-1.039-0.375-1.414 0-0.944 0.944-2.2 1.464-3.535 1.464-1.336 0-2.592-0.52-3.536-1.464-1.949-1.949-1.949-5.122 0-7.071 0.391-0.391 0.391-1.023 0-1.414l-4.242-4.243c-0.188-0.188-0.441-0.293-0.707-0.293s-0.52 0.105-0.707 0.293l-7.071 7.071c-0.188 0.188-0.293 0.442-0.293 0.707v1.829h-1.828c-0.265 0-0.52 0.105-0.707 0.293L5.837 39.778c-0.188 0.188-0.293 0.441-0.293 0.707s0.105 0.52 0.293 0.707l4.243 4.242c0.391 0.391 1.023 0.391 1.414 0 0.944-0.944 2.2-1.464 3.536-1.464 1.336 0 2.591 0.52 3.536 1.464s1.464 2.2 1.464 3.536c0 1.335-0.52 2.591-1.464 3.535-0.188 0.188-0.293 0.441-0.293 0.707s0.105 0.52 0.293 0.707l4.243 4.243c0.188 0.188 0.442 0.293 0.707 0.293s0.52-0.105 0.707-0.293l24.042-24.042c0.188-0.188 0.293-0.441 0.293-0.707v-1.828h1.828c0.266 0 0.52-0.105 0.707-0.293l7.071-7.071c0.188-0.188 0.293-0.442 0.293-0.707S58.351 22.995 58.163 22.808zM20.687 38.657c-0.256 0-0.512-0.098-0.707-0.293-0.391-0.391-0.391-1.023 0-1.414l9.899-9.9c0.391-0.391 1.023-0.391 1.414 0s0.391 1.023 0 1.414l-9.899 9.9C21.198 38.56 20.942 38.657 20.687 38.657zM31.293 39.778l-4.243 4.242c-0.195 0.195-0.451 0.293-0.707 0.293s-0.512-0.098-0.707-0.293c-0.391-0.391-0.391-1.023 0-1.414l4.243-4.242c0.391-0.391 1.023-0.391 1.414 0S31.684 39.388 31.293 39.778zM34.121 31.293l-9.899 9.899c-0.195 0.195-0.451 0.293-0.707 0.293s-0.512-0.098-0.707-0.293c-0.391-0.391-0.391-1.023 0-1.414l9.899-9.899c0.391-0.391 1.023-0.391 1.414 0S34.512 30.902 34.121 31.293zM39.778 22.808c-0.195 0.195-0.451 0.293-0.707 0.293s-0.512-0.098-0.707-0.293l-2.829-2.829c-0.391-0.39-0.391-1.023 0-1.414s1.023-0.391 1.414 0l2.829 2.829C40.169 21.784 40.169 22.417 39.778 22.808zM45.324 28.575c-0.193 0.181-0.438 0.271-0.685 0.271-0.267 0-0.532-0.106-0.729-0.315l-2.74-2.917c-0.379-0.402-0.358-1.035 0.044-1.414 0.404-0.377 1.036-0.358 1.413 0.044l2.74 2.917C45.747 27.563 45.727 28.196 45.324 28.575z" fill="#000000" data-fill-palette-color="accent"></path></g></svg><g></g></g></svg></g></svg></g></svg></g></svg></g><g></g></svg></g></svg></g><g><path d="M0 154.5v-154.5h154.5v154.5zM150.775 150.775v-147.05h-147.05v147.05z" fill="#000000" fill-rule="nonzero" stroke="none" stroke-width="1" stroke-linecap="butt" stroke-linejoin="miter" stroke-miterlimit="10" stroke-dasharray="" stroke-dashoffset="0" font-family="none" font-weight="none" font-size="none" text-anchor="none" style="mix-blend-mode: normal" data-fill-palette-color="tertiary"></path></g></svg></g><defs></defs></svg><rect width="154.5" height="154.5" fill="none" stroke="none" visibility="hidden"></rect></g></svg></g></svg>